<?xml version="1.0" encoding="iso-8859-1"?>
<!-- Generator: Adobe Illustrator 19.0.0, SVG Export Plug-In . SVG Version: 6.00 Build 0)  -->
<svg version="1.1" id="Capa_1" xmlns="http://www.w3.org/2000/svg" xmlns:xlink="http://www.w3.org/1999/xlink" x="0px" y="0px"
	 viewBox="0 0 512 512" style="enable-background:new 0 0 512 512;" xml:space="preserve">
<g>
	<g>
		<path d="M369,0c-33.084,0-60,26.916-60,60c0,26.073,16.722,48.303,40,56.56V359c0,62.309-50.691,113-113,113s-113-50.691-113-113
			h70L83,249v110c0,84.364,68.636,153,153,153s153-68.636,153-153V116.56c23.278-8.257,40-30.487,40-56.56
			C429,26.916,402.084,0,369,0z M369,80c-11.028,0-20-8.972-20-20s8.972-20,20-20s20,8.972,20,20S380.028,80,369,80z"/>
	</g>
</g>
<g>
</g>
<g>
</g>
<g>
</g>
<g>
</g>
<g>
</g>
<g>
</g>
<g>
</g>
<g>
</g>
<g>
</g>
<g>
</g>
<g>
</g>
<g>
</g>
<g>
</g>
<g>
</g>
<g>
</g>
</svg>
